<svg width="512" height="512" xmlns="http://www.w3.org/2000/svg">
 <!-- Generator: Sketch 53.2 (72643) - https://sketchapp.com -->

 <title>MyHbWallet</title>
 <desc>Created with Sketch.</desc>
 <g>
  <title>background</title>
  <rect fill="none" id="canvas_background" height="402" width="582" y="-1" x="-1"/>
 </g>
 <g>
  <title>Layer 1</title>
  <g stroke="null" id="组件" fill="none" fill-rule="evenodd">
   <g stroke="null" id="svg_1">
    <path stroke="null" d="m325.766892,157.903436c0,-73.60672 -43.421545,-136.905053 -76.448492,-157.517349c-0.136118,-0.064833 -2.528022,-1.17571 -2.323418,1.767691l-0.04737,0.090766c-2.742615,142.117361 -90.663803,180.636664 -138.999853,232.524454c-111.547739,119.741382 -7.809218,251.023206 97.829244,275.287819c59.107897,13.575952 -13.650579,-24.022492 -23.0193,-103.438216c-11.331727,-95.986943 143.00919,-169.256298 143.00919,-248.715165" id="Fill-15" fill="#FF0000" stroke-width="0"/>
    <path stroke="null" d="m376.452899,206.290029c-0.675167,-0.380273 -1.638264,-0.639603 -2.302872,0.268053c-1.816329,17.889561 -23.945585,56.158021 -51.994963,91.297304c-95.133429,119.192544 -40.919491,176.651697 -10.436546,207.512027c17.701579,17.915259 0,0 44.243673,-18.308734c3.464866,-1.435041 86.324588,-39.807233 95.2958,-127.236269c8.688133,-84.662687 -52.889858,-138.028661 -74.804807,-153.532382" id="Fill-16" fill="#FF7000" stroke-width="0"/>
   </g>
  </g>
 </g>
</svg>